<svg xmlns="http://www.w3.org/2000/svg" width="60" height="60" viewBox="0 0 60 60">
  <path id="Icon_ionic-md-settings" data-name="Icon ionic-md-settings" d="M56.158,36.375a18.761,18.761,0,0,0,.153-3c0-1.05-.153-1.95-.153-3l6.442-4.95a1.378,1.378,0,0,0,.307-1.95L56.771,13.125a1.494,1.494,0,0,0-1.841-.6l-7.671,3a22.329,22.329,0,0,0-5.215-3l-1.074-7.95a1.644,1.644,0,0,0-1.534-1.2H27.161a1.644,1.644,0,0,0-1.534,1.2L24.4,12.524a25.98,25.98,0,0,0-5.217,3l-7.671-3a1.437,1.437,0,0,0-1.841.6L3.534,23.476a1.812,1.812,0,0,0,.307,1.95l6.6,4.95c0,1.05-.153,1.95-.153,3s.153,1.95.153,3L4,41.325a1.378,1.378,0,0,0-.307,1.95L9.825,53.625a1.494,1.494,0,0,0,1.841.6l7.671-3a22.326,22.326,0,0,0,5.215,3l1.227,7.95a1.487,1.487,0,0,0,1.534,1.2H39.588a1.644,1.644,0,0,0,1.534-1.2l1.229-7.95a25.965,25.965,0,0,0,5.215-3l7.671,3a1.437,1.437,0,0,0,1.841-.6l6.137-10.351a1.809,1.809,0,0,0-.307-1.95Zm-22.86,7.5a10.5,10.5,0,1,1,0-21,10.5,10.5,0,1,1,0,21Z" transform="translate(-3.375 -3.375)" fill="#ef5f23"/>
</svg>
