<svg xmlns="http://www.w3.org/2000/svg" width="50" height="50" viewBox="0 0 50 50">
  <path id="Icon_ionic-md-settings" data-name="Icon ionic-md-settings" d="M47.361,30.875a15.635,15.635,0,0,0,.127-2.5c0-.875-.127-1.625-.127-2.5l5.369-4.125a1.148,1.148,0,0,0,.256-1.625L47.871,11.5a1.245,1.245,0,0,0-1.534-.5l-6.392,2.5A18.608,18.608,0,0,0,35.6,11l-.9-6.625a1.37,1.37,0,0,0-1.279-1H23.2a1.37,1.37,0,0,0-1.278,1L20.9,11a21.65,21.65,0,0,0-4.347,2.5L10.156,11a1.2,1.2,0,0,0-1.534.5L3.507,20.126a1.51,1.51,0,0,0,.256,1.625l5.5,4.125c0,.875-.127,1.625-.127,2.5s.127,1.625.127,2.5L3.892,35a1.148,1.148,0,0,0-.256,1.625L8.75,45.25a1.245,1.245,0,0,0,1.534.5l6.393-2.5a18.606,18.606,0,0,0,4.346,2.5l1.023,6.625a1.239,1.239,0,0,0,1.278,1H33.552a1.37,1.37,0,0,0,1.279-1l1.024-6.625a21.637,21.637,0,0,0,4.346-2.5l6.393,2.5a1.2,1.2,0,0,0,1.534-.5l5.114-8.626A1.508,1.508,0,0,0,52.986,35Zm-19.05,6.25a8.752,8.752,0,1,1,0-17.5,8.752,8.752,0,1,1,0,17.5Z" transform="translate(-3.375 -3.375)" fill="#ef5f23"/>
</svg>
